<svg id="visual" viewBox="0 0 960 540" width="960" height="540" xmlns="http://www.w3.org/2000/svg" xmlns:xlink="http://www.w3.org/1999/xlink" version="1.1"><rect x="0" y="0" width="960" height="540" fill="#000000"></rect><path d="M0 317L22.8 331.2C45.7 345.3 91.3 373.7 137 376C182.7 378.3 228.3 354.7 274 353.5C319.7 352.3 365.3 373.7 411.2 379.2C457 384.7 503 374.3 548.8 374.2C594.7 374 640.3 384 686 377C731.7 370 777.3 346 823 336.5C868.7 327 914.3 332 937.2 334.5L960 337L960 541L937.2 541C914.3 541 868.7 541 823 541C777.3 541 731.7 541 686 541C640.3 541 594.7 541 548.8 541C503 541 457 541 411.2 541C365.3 541 319.7 541 274 541C228.3 541 182.7 541 137 541C91.3 541 45.7 541 22.8 541L0 541Z" fill="#d6d5d2"></path><path d="M0 425L22.8 421.2C45.7 417.3 91.3 409.7 137 407.7C182.7 405.7 228.3 409.3 274 412.5C319.7 415.7 365.3 418.3 411.2 410.8C457 403.3 503 385.7 548.8 381.2C594.7 376.7 640.3 385.3 686 392.7C731.7 400 777.3 406 823 407.2C868.7 408.3 914.3 404.7 937.2 402.8L960 401L960 541L937.2 541C914.3 541 868.7 541 823 541C777.3 541 731.7 541 686 541C640.3 541 594.7 541 548.8 541C503 541 457 541 411.2 541C365.3 541 319.7 541 274 541C228.3 541 182.7 541 137 541C91.3 541 45.7 541 22.8 541L0 541Z" fill="#acaaa7"></path><path d="M0 427L22.8 432.8C45.7 438.7 91.3 450.3 137 453.3C182.7 456.3 228.3 450.7 274 453.2C319.7 455.7 365.3 466.3 411.2 462.8C457 459.3 503 441.7 548.8 438.5C594.7 435.3 640.3 446.7 686 448.5C731.7 450.3 777.3 442.7 823 444C868.7 445.3 914.3 455.7 937.2 460.8L960 466L960 541L937.2 541C914.3 541 868.7 541 823 541C777.3 541 731.7 541 686 541C640.3 541 594.7 541 548.8 541C503 541 457 541 411.2 541C365.3 541 319.7 541 274 541C228.3 541 182.7 541 137 541C91.3 541 45.7 541 22.8 541L0 541Z" fill="#84817f"></path><path d="M0 485L22.8 487.5C45.7 490 91.3 495 137 492.8C182.7 490.7 228.3 481.3 274 476.7C319.7 472 365.3 472 411.2 478.5C457 485 503 498 548.8 496.2C594.7 494.3 640.3 477.7 686 474C731.7 470.3 777.3 479.7 823 486.8C868.7 494 914.3 499 937.2 501.5L960 504L960 541L937.2 541C914.3 541 868.7 541 823 541C777.3 541 731.7 541 686 541C640.3 541 594.7 541 548.8 541C503 541 457 541 411.2 541C365.3 541 319.7 541 274 541C228.3 541 182.7 541 137 541C91.3 541 45.7 541 22.8 541L0 541Z" fill="#5d5a5a"></path></svg>